<svg width="63" height="78" fill="none" xmlns="http://www.w3.org/2000/svg"><path d="M63 41.74c0-5.18-2.4-7.72-3.63-9.94a54.73 54.73 0 0 1-4.24-17.49C55.05 9.43 53.41 1.99 52.22 0c-.88 0-1.54 7.73-2.3 11.57-1.45 6.95-3.81 8.87-4.49 8.94-.76-2.8-4.15-7.31-13.8-7.68h-.26c-9.65.36-13.05 4.89-13.8 7.68-.69-.07-3.03-1.99-4.49-8.94C12.32 7.73 11.65 0 10.78 0c-1.2 1.99-2.83 9.43-2.9 14.31A55.28 55.28 0 0 1 3.63 31.8C2.4 34.02 0 36.56 0 41.74c0 3.71 5.25 7.15 5.7 11.33.12 1.2 0 2.33.12 3.34C7.83 73.78 23.86 78 31.5 78c7.64 0 23.67-4.22 25.68-21.6.16-.99 0-2.12.13-3.33.44-4.18 5.69-7.6 5.69-11.33ZM33.56 26.59a21.95 21.95 0 0 0-4.12 0c-1.75.34-5.82 1-5.82-1.07 0-1.06 6.79-2.28 7.88-2.28 1.09 0 7.88 1.22 7.88 2.28 0 2.06-4.04 1.41-5.82 1.07Z" fill="#826550"/></svg>