<svg width="57" height="97" fill="none" xmlns="http://www.w3.org/2000/svg"><path d="M51.12 15.13C50.73 9.73 50.51 4.36 48.6 0c-.76 0-1.53 7.26-2.28 10.84-1.48 7.1-3.71 8.23-4.44 8.23-.88-3.84-4.38-4.17-7.8-5.84-1.12-.6-2.34-1-3.6-1.2-.67 0-1.34.04-2 .12-.66-.08-1.33-.12-2-.11-1.26.19-2.48.59-3.6 1.19-3.42 1.63-6.94 1.98-7.8 5.84-.73 0-3-1.14-4.44-8.23C9.93 7.26 9.16 0 8.4 0 6.49 4.36 6.27 9.72 5.88 15.13 5 38.51 0 51.17 0 61.97 0 87.85 11.71 97 28.5 97S57 87.85 57 61.97c0-10.8-5-23.46-5.88-46.84Zm-16.68 9.7c-2.79 1.16-5.35-.7-5.88-.72h-.12c-.53 0-3.09 1.88-5.88.72-.78-3.56 2.4-3.98 5.94-3.89 3.55-.17 6.73.3 5.94 3.89Z" fill="#826550"/></svg>