<svg width="95" height="91" fill="none" xmlns="http://www.w3.org/2000/svg"><path d="M47.53 8.08c1.82 0 3.6.52 5.11 1.5 1.52 1 2.7 2.4 3.4 4.04a8.84 8.84 0 0 1-1.97 9.83 9.37 9.37 0 0 1-10.02 1.97 9.16 9.16 0 0 1-4.14-3.32 8.88 8.88 0 0 1 1.13-11.37 9.3 9.3 0 0 1 6.49-2.65Z" fill="#826550"/><path d="M68.1 26.1H26.95c-.75 0-1.47.3-2 .81a2.76 2.76 0 0 0-.83 1.97v4.42c0 .74.3 1.45.83 1.97s1.25.82 2 .82h.84V81h-.84c-.75 0-1.47.3-2 .82a2.76 2.76 0 0 0-.83 1.97v4.42c0 .74.3 1.45.83 1.97.53.53 1.25.82 2 .83H68.1c.75 0 1.47-.3 2-.82.54-.52.84-1.23.84-1.97v-4.43c0-.74-.3-1.45-.83-1.97a2.89 2.89 0 0 0-2.01-.82h-.84v-44.9h.84c.75 0 1.47-.3 2-.82.54-.52.84-1.23.84-1.97v-4.42c0-.74-.3-1.44-.83-1.97a2.89 2.89 0 0 0-2.01-.82Zm-34.12 10H47.3L33.98 49.14V36.09Zm27.1 44.89H47.43l13.63-13.32v13.32Zm0-28.4-27.1 26.54v-14.9l27.1-26.55v14.91Z" fill="#826550"/><path d="M47.53 0c-9.99 0-19.71 3.08-27.8 8.8a46.64 46.64 0 0 0-17.3 23.08 45.68 45.68 0 0 0-.25 28.63 46.6 46.6 0 0 0 16.9 23.36v-.1c0-1.42.4-2.83 1.17-4.05A42.57 42.57 0 0 1 5.68 58.2a41.8 41.8 0 0 1 .81-25.83 42.71 42.71 0 0 1 15.89-20.62A44.1 44.1 0 0 1 47.5 3.91c9 0 17.77 2.73 25.12 7.83a42.71 42.71 0 0 1 15.89 20.62 41.8 41.8 0 0 1 .8 25.83 42.57 42.57 0 0 1-14.56 21.53 7.6 7.6 0 0 1 1.19 4.06v.09A46.6 46.6 0 0 0 92.82 60.5a45.69 45.69 0 0 0-.24-28.61A46.65 46.65 0 0 0 75.3 8.82 48.2 48.2 0 0 0 47.53 0Z" fill="#826550"/></svg>