<svg width="226" height="30" fill="none" xmlns="http://www.w3.org/2000/svg"><path d="M3.5 9.67 0 13.16l3.5 3.49 3.49-3.5-3.5-3.48ZM218.8 9.68l-3.49 3.49 3.5 3.49 3.5-3.49-3.5-3.49Z" fill="#fff"/><path d="M28.62 13.28h1.29V8.2h2V6.93h-3.29v6.35ZM37.73 14.21V6.47A2.8 2.8 0 0 0 36.17 4c.19.38.29.8.29 1.21v7.78a2.7 2.7 0 0 1-1 2.14 3.2 3.2 0 0 1 1 2.26v8.59a2.82 2.82 0 0 1-2.78 2.78h-8.3v1.21h9.57a2.84 2.84 0 0 0 2.78-2.79v-8.55a3.18 3.18 0 0 0-1-2.26 2.73 2.73 0 0 0 1-2.15Z" fill="#636466"/><path d="M28.62 24.18h1.29v-5.12h2V17.8h-3.29v6.39ZM48.82 24.18h1.27V8.2h2V6.93h-3.27v17.25Z" fill="#636466"/><path d="M56.36 4c.2.37.3.78.3 1.2v20.77a2.82 2.82 0 0 1-2.8 2.78H47.1c-.43 0-.84-.1-1.22-.3a2.79 2.79 0 0 0 2.49 1.51h6.78a2.84 2.84 0 0 0 2.79-2.79V6.47A2.78 2.78 0 0 0 56.36 4ZM69 13.28h1.29V8.2h2V6.93H69v6.35ZM76.5 18.8a2.72 2.72 0 0 0 1.56-2.48V6.47A2.8 2.8 0 0 0 76.51 4c.19.39.29.8.3 1.23v9.86a2.71 2.71 0 0 1-1.59 2.48l1.9 11.2h-3.47l.2 1.2h4.53L76.5 18.8ZM70.75 17.79H69v10.94h-3.25V30h4.53V19.06h.67l-.21-1.27ZM88.6 24.18h1.27V8.2h2V6.93H88.6v17.25Z" fill="#636466"/><path d="M96.14 4c.19.37.29.78.3 1.2v20.77a2.82 2.82 0 0 1-2.8 2.78h-6.77c-.43 0-.84-.1-1.22-.3a2.79 2.79 0 0 0 2.49 1.51h6.77a2.84 2.84 0 0 0 2.8-2.79V6.47A2.78 2.78 0 0 0 96.14 4ZM108.78 24.18h1.29V8.2h2V6.93h-3.28v17.25Z" fill="#636466"/><path d="M116.33 4c.19.37.29.78.3 1.2v20.77a2.82 2.82 0 0 1-2.8 2.78h-8.29v1.21h9.55a2.82 2.82 0 0 0 2.78-2.79V6.47A2.8 2.8 0 0 0 116.33 4ZM129.2 3.69v25.04h-3.24V30h4.52V3.69h-1.28ZM149.33 3.69v25.04h-3.63l.37 1.27h4.53V3.69h-1.27ZM141.49 17.23v11.5h-3.25V30h4.52v-8.35l-1.27-4.42ZM161.22 19.06h3.74V17.8h-5c-.43 0-.85-.1-1.23-.3a2.76 2.76 0 0 0 2.49 1.57ZM162.95 20.75l-1.27.3v3.13h1.27v-3.43ZM169.22 4c.19.37.29.78.3 1.2v5.35l-3.3.75v1.57l4.56-1.06V6.47A2.78 2.78 0 0 0 169.22 4Z" fill="#636466"/><path d="M169.22 14.85c.19.38.29.79.3 1.2v9.92a2.82 2.82 0 0 1-2.8 2.78h-6.78c-.42 0-.83-.1-1.2-.3a2.77 2.77 0 0 0 2.47 1.51H168a2.84 2.84 0 0 0 2.78-2.79v-9.83a2.78 2.78 0 0 0-1.56-2.49ZM161.68 6.93v6.35h1.27V8.2h2V6.93h-3.27ZM182.28 17.79h-.4v10.94h-3.26V30h4.52v-9.48l-.86-2.73ZM191.54 3.69h-1.68l-3.8 11.84 4.2 13.2h-3.67l.35 1.12.05.15h4.55l-4.22-13.2 4.22-13.11ZM202.18 3.69v25.04h-3.26V30h4.53V3.69h-1.27ZM224.73 15.6l-3.5 3.48 1.27 1.27 3.5-3.49-1.27-1.27ZM9.42 15.57l-3.5 3.49 1.28 1.27 3.5-3.49-1.28-1.27Z" fill="#636466"/><path d="M34.03 10.53a2.7 2.7 0 0 1-1 2.13 3.2 3.2 0 0 1 1 2.26v8.6a2.82 2.82 0 0 1-2.78 2.8h-9.56V0h9.57a2.8 2.8 0 0 1 2.77 2.79v7.74Zm-4.55-6H26.2v6.36h3.29l-.01-6.36Zm0 10.86H26.2v6.4h3.29l-.01-6.4ZM51.44 0a2.8 2.8 0 0 1 2.8 2.79v20.74a2.82 2.82 0 0 1-2.8 2.78h-6.77a2.8 2.8 0 0 1-2.8-2.78V2.79A2.77 2.77 0 0 1 44.67 0h6.77Zm-1.77 4.51H46.4v17.25h3.27V4.51ZM70.17 26.31l-1.85-10.98h-1.74v10.98h-4.53V0h9.57a2.78 2.78 0 0 1 2.75 2.79v9.84a2.72 2.72 0 0 1-1.6 2.48l1.9 11.2h-4.5Zm-.3-21.8h-3.29v6.36h3.29V4.5ZM91.22 0a2.8 2.8 0 0 1 2.8 2.79v20.74a2.82 2.82 0 0 1-2.8 2.78h-6.77a2.8 2.8 0 0 1-2.8-2.78V2.79A2.77 2.77 0 0 1 84.45 0h6.77Zm-1.77 4.51h-3.27v17.25h3.27V4.51ZM111.42 0a2.8 2.8 0 0 1 2.78 2.79v20.74a2.82 2.82 0 0 1-2.78 2.78h-9.57V0h9.57Zm-1.77 4.51h-3.29v17.25h3.29V4.51ZM122.27 0h4.52v26.31h-4.52V0ZM146.9 0v26.31h-4.52l-3.27-11.5v11.5h-4.53V0h4.49l3.31 10.79V0h4.51ZM164.3 10.87a2.8 2.8 0 0 1 2.83 2.77v9.89a2.83 2.83 0 0 1-2.78 2.78h-6.83a2.8 2.8 0 0 1-2.78-2.78v-5.41l4.51-1.05v4.7h3.29v-6.4h-5a2.78 2.78 0 0 1-2.79-2.78V2.8A2.79 2.79 0 0 1 157.52 0h6.79a2.81 2.81 0 0 1 2.82 2.79v5.33l-4.55 1v-4.6h-3.29v6.35h5.02ZM183.63 13.12l4.22 13.2h-4.56v-.15l-3.4-10.8h-.4v10.98h-4.52V0h4.52v10.87h.34L183.25 0h4.6l-4.22 13.12ZM195.23 0h4.52v26.31h-4.52V0Z" fill="#fff"/></svg>