<svg xmlns="http://www.w3.org/2000/svg">

  <symbol viewBox="0 0 16 16" id="icon-login">
    <polygon points="0 7 7.01 7 7.01 4.06 10.96 8.01 7.01 11.91 7.01 9.06 0 9.02 0 7"/>
    <polygon points="7.01 0 7.01 2 14.03 2 14.03 13.99 7.01 13.99 7.01 16 16 16 16 0 7.01 0"/>
  </symbol>

  <symbol viewBox="0 0 16 16" id="icon-comb">
    <path d="M10.4.75L.76 10.4a1.21 1.21 0 000 1.72l1 1 .52.5 1.9 1.9a.33.33 0 10.43-.52l-1.72-1.68a.25.25 0 010-.38.26.26 0 01.38 0L5 14.65a.33.33 0 10.46-.46l-1.71-1.7a.26.26 0 010-.38.27.27 0 01.39 0l1.71 1.71a.33.33 0 10.46-.46l-1.72-1.7a.25.25 0 010-.38.26.26 0 01.38 0L6.66 13a.32.32 0 00.46 0 .33.33 0 000-.47l-1.71-1.72a.26.26 0 010-.38.27.27 0 01.39 0l1.71 1.71a.33.33 0 10.49-.46L6.24 10a.26.26 0 010-.38.27.27 0 01.39 0l1.71 1.71a.33.33 0 00.46-.46L7.09 9.13a.26.26 0 010-.38.27.27 0 01.39 0l1.71 1.71a.33.33 0 00.46-.46L7.92 8.3a.26.26 0 010-.38.27.27 0 01.39 0L10 9.63a.33.33 0 00.46-.46L8.77 7.45a.26.26 0 010-.38.27.27 0 01.39 0l1.69 1.73a.33.33 0 00.47 0 .35.35 0 000-.47L9.6 6.62a.26.26 0 010-.38.27.27 0 01.39 0L11.7 8a.33.33 0 10.46-.46l-1.72-1.7a.27.27 0 11.38-.38l1.71 1.71a.32.32 0 00.46 0 .33.33 0 000-.47l-1.71-1.76a.26.26 0 010-.38.27.27 0 01.39 0l1.71 1.71a.33.33 0 00.46-.46l-1.73-1.7a.26.26 0 010-.38.27.27 0 01.39 0l1.71 1.71a.32.32 0 00.46 0 .33.33 0 000-.47L13 3.26a.26.26 0 010-.38.27.27 0 01.39 0L15 4.59a.33.33 0 00.47 0 .34.34 0 000-.46L13.6 2.24l-.51-.51-1-1a1.23 1.23 0 00-1.69.02z"/>
  </symbol>
  </svg>
